<svg width="277" height="59" viewBox="0 0 277 59" fill="none" xmlns="http://www.w3.org/2000/svg">
<g clip-path="url(#clip0_31_2)">
<path d="M114.942 32.3594V48H112.267V32.3594H114.942ZM119.851 32.3594V34.5078H107.401V32.3594H119.851ZM132.811 45.8623V48H124.507V45.8623H132.811ZM125.27 32.3594V48H122.574V32.3594H125.27ZM131.726 38.8906V40.9961H124.507V38.8906H131.726ZM132.757 32.3594V34.5078H124.507V32.3594H132.757ZM137.725 32.3594L141.044 38.0635L144.364 32.3594H147.468L142.742 40.1045L147.586 48H144.45L141.044 42.1885L137.639 48H134.492L139.347 40.1045L134.61 32.3594H137.725ZM160.568 38.8906V41.0283H152.264V38.8906H160.568ZM152.93 32.3594V48H150.234V32.3594H152.93ZM162.641 32.3594V48H159.955V32.3594H162.641ZM178.984 39.75V40.6094C178.984 41.791 178.83 42.8509 178.523 43.7891C178.215 44.7272 177.774 45.5257 177.201 46.1846C176.635 46.8434 175.955 47.3483 175.16 47.6992C174.365 48.043 173.484 48.2148 172.518 48.2148C171.558 48.2148 170.681 48.043 169.886 47.6992C169.098 47.3483 168.414 46.8434 167.834 46.1846C167.254 45.5257 166.803 44.7272 166.481 43.7891C166.165 42.8509 166.008 41.791 166.008 40.6094V39.75C166.008 38.5684 166.165 37.512 166.481 36.5811C166.796 35.6429 167.24 34.8444 167.813 34.1855C168.393 33.5195 169.077 33.0146 169.864 32.6709C170.659 32.32 171.537 32.1445 172.496 32.1445C173.463 32.1445 174.344 32.32 175.139 32.6709C175.934 33.0146 176.618 33.5195 177.191 34.1855C177.763 34.8444 178.204 35.6429 178.512 36.5811C178.827 37.512 178.984 38.5684 178.984 39.75ZM176.288 40.6094V39.7285C176.288 38.8548 176.202 38.085 176.03 37.4189C175.866 36.7458 175.619 36.1836 175.289 35.7324C174.967 35.2741 174.569 34.9303 174.097 34.7012C173.624 34.4648 173.091 34.3467 172.496 34.3467C171.902 34.3467 171.372 34.4648 170.906 34.7012C170.441 34.9303 170.043 35.2741 169.714 35.7324C169.392 36.1836 169.145 36.7458 168.973 37.4189C168.801 38.085 168.715 38.8548 168.715 39.7285V40.6094C168.715 41.4831 168.801 42.2565 168.973 42.9297C169.145 43.6029 169.395 44.1722 169.725 44.6377C170.061 45.096 170.462 45.4434 170.928 45.6797C171.393 45.9089 171.923 46.0234 172.518 46.0234C173.119 46.0234 173.653 45.9089 174.118 45.6797C174.584 45.4434 174.978 45.096 175.3 44.6377C175.622 44.1722 175.866 43.6029 176.03 42.9297C176.202 42.2565 176.288 41.4831 176.288 40.6094ZM192.256 32.3594V34.5078H184.758V32.3594H192.256ZM194.318 32.3594V48H191.622V32.3594H194.318ZM184.221 32.3594H186.895L186.519 40.126C186.469 41.2646 186.373 42.2673 186.229 43.1338C186.086 44.0003 185.893 44.7415 185.649 45.3574C185.406 45.9733 185.098 46.4782 184.726 46.8721C184.353 47.2588 183.906 47.5452 183.383 47.7314C182.867 47.9105 182.262 48 181.567 48H180.88V45.8623L181.299 45.8301C181.678 45.8014 182.004 45.7119 182.276 45.5615C182.556 45.404 182.792 45.1748 182.985 44.874C183.179 44.5661 183.34 44.1686 183.469 43.6816C183.598 43.1947 183.698 42.6003 183.769 41.8984C183.848 41.1966 183.906 40.3766 183.941 39.4385L184.221 32.3594ZM210.683 39.75V40.6094C210.683 41.791 210.529 42.8509 210.221 43.7891C209.914 44.7272 209.473 45.5257 208.9 46.1846C208.334 46.8434 207.654 47.3483 206.859 47.6992C206.064 48.043 205.183 48.2148 204.217 48.2148C203.257 48.2148 202.38 48.043 201.585 47.6992C200.797 47.3483 200.113 46.8434 199.533 46.1846C198.953 45.5257 198.502 44.7272 198.179 43.7891C197.864 42.8509 197.707 41.791 197.707 40.6094V39.75C197.707 38.5684 197.864 37.512 198.179 36.5811C198.495 35.6429 198.939 34.8444 199.511 34.1855C200.092 33.5195 200.775 33.0146 201.563 32.6709C202.358 32.32 203.235 32.1445 204.195 32.1445C205.162 32.1445 206.043 32.32 206.838 32.6709C207.633 33.0146 208.316 33.5195 208.889 34.1855C209.462 34.8444 209.903 35.6429 210.211 36.5811C210.526 37.512 210.683 38.5684 210.683 39.75ZM207.987 40.6094V39.7285C207.987 38.8548 207.901 38.085 207.729 37.4189C207.565 36.7458 207.317 36.1836 206.988 35.7324C206.666 35.2741 206.268 34.9303 205.796 34.7012C205.323 34.4648 204.789 34.3467 204.195 34.3467C203.601 34.3467 203.071 34.4648 202.605 34.7012C202.14 34.9303 201.742 35.2741 201.413 35.7324C201.091 36.1836 200.844 36.7458 200.672 37.4189C200.5 38.085 200.414 38.8548 200.414 39.7285V40.6094C200.414 41.4831 200.5 42.2565 200.672 42.9297C200.844 43.6029 201.094 44.1722 201.424 44.6377C201.76 45.096 202.161 45.4434 202.627 45.6797C203.092 45.9089 203.622 46.0234 204.217 46.0234C204.818 46.0234 205.352 45.9089 205.817 45.6797C206.283 45.4434 206.677 45.096 206.999 44.6377C207.321 44.1722 207.565 43.6029 207.729 42.9297C207.901 42.2565 207.987 41.4831 207.987 40.6094ZM224.041 32.3594V34.5078H216.779V48H214.093V32.3594H224.041ZM229.61 43.6064L236.549 32.3594H239.246V48H236.549V36.7422L229.61 48H226.924V32.3594H229.61V43.6064ZM245.803 43.6064L252.742 32.3594H255.439V48H252.742V36.7422L245.803 48H243.117V32.3594H245.803V43.6064ZM250.884 28.3525H252.807C252.807 28.9469 252.664 29.4733 252.377 29.9316C252.098 30.3828 251.697 30.7373 251.174 30.9951C250.658 31.2529 250.043 31.3818 249.326 31.3818C248.245 31.3818 247.389 31.1025 246.759 30.5439C246.136 29.9782 245.824 29.2477 245.824 28.3525H247.747C247.747 28.7536 247.866 29.1081 248.102 29.416C248.345 29.7168 248.754 29.8672 249.326 29.8672C249.892 29.8672 250.293 29.7168 250.53 29.416C250.766 29.1081 250.884 28.7536 250.884 28.3525Z" fill="white"/>
<path d="M117.042 20.626L116.912 24.3994H115.333V22H114.444V20.626H117.042ZM107.971 22V12.0469H109.693V20.6396H114.103V12.0469H115.825V22H107.971ZM125.532 20.6396V22H120.248V20.6396H125.532ZM120.733 12.0469V22H119.017V12.0469H120.733ZM124.841 16.2031V17.543H120.248V16.2031H124.841ZM125.498 12.0469V13.4141H120.248V12.0469H125.498ZM134.069 16.2031V17.5635H128.785V16.2031H134.069ZM129.209 12.0469V22H127.493V12.0469H129.209ZM135.389 12.0469V22H133.68V12.0469H135.389ZM141.882 12.0469V22H140.18V12.0469H141.882ZM145.006 12.0469V13.4141H137.083V12.0469H145.006ZM150.659 18.2881H148.068V16.9277H150.659C151.11 16.9277 151.475 16.8548 151.753 16.709C152.031 16.5632 152.233 16.3626 152.361 16.1074C152.493 15.8477 152.559 15.5514 152.559 15.2188C152.559 14.9043 152.493 14.6104 152.361 14.3369C152.233 14.0589 152.031 13.8356 151.753 13.667C151.475 13.4984 151.11 13.4141 150.659 13.4141H148.594V22H146.879V12.0469H150.659C151.429 12.0469 152.083 12.1836 152.621 12.457C153.163 12.7259 153.576 13.0996 153.858 13.5781C154.141 14.0521 154.282 14.5944 154.282 15.2051C154.282 15.8477 154.141 16.3991 153.858 16.8594C153.576 17.3197 153.163 17.6729 152.621 17.9189C152.083 18.165 151.429 18.2881 150.659 18.2881ZM166.736 12.0469V13.4141H162.108V22H160.399V12.0469H166.736ZM161.589 15.8682H164.09C164.847 15.8682 165.494 15.9958 166.032 16.251C166.57 16.5016 166.98 16.8548 167.262 17.3105C167.545 17.7663 167.686 18.2972 167.686 18.9033C167.686 19.359 167.606 19.776 167.447 20.1543C167.287 20.5326 167.053 20.8607 166.743 21.1387C166.433 21.4121 166.055 21.624 165.608 21.7744C165.166 21.9248 164.66 22 164.09 22H160.399V12.0469H162.122V20.6396H164.09C164.523 20.6396 164.879 20.5599 165.157 20.4004C165.435 20.2363 165.64 20.0221 165.772 19.7578C165.909 19.4935 165.977 19.2041 165.977 18.8896C165.977 18.5843 165.909 18.3063 165.772 18.0557C165.64 17.805 165.435 17.6045 165.157 17.4541C164.879 17.3037 164.523 17.2285 164.09 17.2285H161.589V15.8682ZM173.667 13.373L170.693 22H168.896L172.642 12.0469H173.79L173.667 13.373ZM176.155 22L173.175 13.373L173.045 12.0469H174.2L177.96 22H176.155ZM176.012 18.3086V19.6689H170.598V18.3086H176.012ZM186.21 16.2031V17.5635H180.926V16.2031H186.21ZM181.35 12.0469V22H179.634V12.0469H181.35ZM187.53 12.0469V22H185.821V12.0469H187.53ZM191.877 12.0469V22H190.168V12.0469H191.877ZM197.865 12.0469L193.818 17.7207H191.392L191.159 16.2305H192.868L195.767 12.0469H197.865ZM196.115 22L192.895 17.4609L194.003 16.1416L198.173 22H196.115ZM207.435 16.75V17.2969C207.435 18.0488 207.337 18.7233 207.141 19.3203C206.945 19.9173 206.665 20.4255 206.3 20.8447C205.94 21.264 205.507 21.5853 205.001 21.8086C204.496 22.0273 203.935 22.1367 203.32 22.1367C202.709 22.1367 202.151 22.0273 201.645 21.8086C201.144 21.5853 200.708 21.264 200.339 20.8447C199.97 20.4255 199.683 19.9173 199.478 19.3203C199.277 18.7233 199.177 18.0488 199.177 17.2969V16.75C199.177 15.998 199.277 15.3258 199.478 14.7334C199.678 14.1364 199.961 13.6283 200.326 13.209C200.695 12.7852 201.13 12.4639 201.631 12.2451C202.137 12.0218 202.695 11.9102 203.306 11.9102C203.921 11.9102 204.482 12.0218 204.988 12.2451C205.494 12.4639 205.929 12.7852 206.293 13.209C206.658 13.6283 206.938 14.1364 207.134 14.7334C207.335 15.3258 207.435 15.998 207.435 16.75ZM205.719 17.2969V16.7363C205.719 16.1803 205.664 15.6904 205.555 15.2666C205.45 14.8382 205.293 14.4805 205.083 14.1934C204.878 13.9017 204.625 13.6829 204.325 13.5371C204.024 13.3867 203.684 13.3115 203.306 13.3115C202.928 13.3115 202.591 13.3867 202.294 13.5371C201.998 13.6829 201.745 13.9017 201.536 14.1934C201.33 14.4805 201.173 14.8382 201.064 15.2666C200.954 15.6904 200.9 16.1803 200.9 16.7363V17.2969C200.9 17.8529 200.954 18.3451 201.064 18.7734C201.173 19.2018 201.333 19.5641 201.542 19.8604C201.757 20.152 202.012 20.373 202.308 20.5234C202.604 20.6693 202.941 20.7422 203.32 20.7422C203.703 20.7422 204.042 20.6693 204.338 20.5234C204.635 20.373 204.885 20.152 205.09 19.8604C205.295 19.5641 205.45 19.2018 205.555 18.7734C205.664 18.3451 205.719 17.8529 205.719 17.2969ZM213.443 17.502H210.907L210.893 16.251H213.108C213.482 16.251 213.799 16.1963 214.058 16.0869C214.323 15.973 214.523 15.8112 214.66 15.6016C214.797 15.3874 214.865 15.1299 214.865 14.8291C214.865 14.4964 214.801 14.2253 214.674 14.0156C214.546 13.806 214.35 13.6533 214.086 13.5576C213.826 13.4619 213.493 13.4141 213.088 13.4141H211.427V22H209.711V12.0469H213.088C213.635 12.0469 214.122 12.0993 214.551 12.2041C214.984 12.3089 215.35 12.473 215.651 12.6963C215.957 12.915 216.187 13.193 216.342 13.5303C216.501 13.8675 216.581 14.2686 216.581 14.7334C216.581 15.1436 216.483 15.5195 216.287 15.8613C216.091 16.1986 215.802 16.4743 215.419 16.6885C215.036 16.9027 214.56 17.0303 213.99 17.0713L213.443 17.502ZM213.368 22H210.367L211.139 20.6396H213.368C213.755 20.6396 214.079 20.5758 214.339 20.4482C214.598 20.3161 214.792 20.1361 214.92 19.9082C215.052 19.6758 215.118 19.4046 215.118 19.0947C215.118 18.7712 215.061 18.4909 214.947 18.2539C214.833 18.0124 214.653 17.8278 214.407 17.7002C214.161 17.568 213.84 17.502 213.443 17.502H211.515L211.529 16.251H214.038L214.428 16.7227C214.974 16.7409 215.423 16.8617 215.774 17.085C216.13 17.3083 216.394 17.5977 216.567 17.9531C216.74 18.3086 216.827 18.6914 216.827 19.1016C216.827 19.735 216.688 20.266 216.41 20.6943C216.137 21.1227 215.742 21.4486 215.227 21.6719C214.712 21.8906 214.093 22 213.368 22ZM224.995 18.7598H226.704C226.65 19.4115 226.467 19.9925 226.158 20.5029C225.848 21.0088 225.412 21.4076 224.852 21.6992C224.291 21.9909 223.61 22.1367 222.808 22.1367C222.193 22.1367 221.639 22.0273 221.147 21.8086C220.655 21.5853 220.233 21.2708 219.882 20.8652C219.531 20.4551 219.262 19.9606 219.075 19.3818C218.893 18.8031 218.802 18.1559 218.802 17.4404V16.6133C218.802 15.8978 218.895 15.2507 219.082 14.6719C219.274 14.0931 219.547 13.5986 219.903 13.1885C220.258 12.7738 220.684 12.457 221.181 12.2383C221.682 12.0195 222.245 11.9102 222.869 11.9102C223.662 11.9102 224.332 12.056 224.879 12.3477C225.426 12.6393 225.85 13.0426 226.151 13.5576C226.456 14.0726 226.643 14.6628 226.711 15.3281H225.002C224.957 14.8997 224.856 14.5329 224.701 14.2275C224.551 13.9222 224.328 13.6898 224.032 13.5303C223.735 13.3662 223.348 13.2842 222.869 13.2842C222.477 13.2842 222.136 13.3571 221.844 13.5029C221.552 13.6488 221.309 13.863 221.113 14.1455C220.917 14.4281 220.769 14.7767 220.668 15.1914C220.573 15.6016 220.525 16.071 220.525 16.5996V17.4404C220.525 17.9417 220.568 18.3975 220.655 18.8076C220.746 19.2132 220.882 19.5618 221.065 19.8535C221.252 20.1452 221.489 20.3708 221.776 20.5303C222.063 20.6898 222.407 20.7695 222.808 20.7695C223.296 20.7695 223.69 20.6921 223.991 20.5371C224.296 20.3822 224.526 20.1566 224.681 19.8604C224.84 19.5596 224.945 19.1927 224.995 18.7598ZM230.566 12.0469V22H228.857V12.0469H230.566ZM236.554 12.0469L232.508 17.7207H230.081L229.848 16.2305H231.557L234.456 12.0469H236.554ZM234.804 22L231.585 17.4609L232.692 16.1416L236.862 22H234.804ZM240.102 19.2041L244.518 12.0469H246.234V22H244.518V14.8359L240.102 22H238.393V12.0469H240.102V19.2041ZM250.28 12.0469L252.392 15.6768L254.504 12.0469H256.48L253.472 16.9756L256.555 22H254.559L252.392 18.3018L250.225 22H248.222L251.312 16.9756L248.297 12.0469H250.28Z" fill="white"/>
<path d="M85.5 0V59" stroke="white" stroke-width="3"/>
</g>
<defs>
<clipPath id="clip0_31_2">
<rect width="277" height="59" fill="white"/>
</clipPath>
</defs>
</svg>
